<?xml version="1.0" encoding="utf-8"?>
<!-- Generator: Adobe Illustrator 27.5.0, SVG Export Plug-In . SVG Version: 6.00 Build 0)  -->
<svg version="1.1" xmlns="http://www.w3.org/2000/svg" xmlns:xlink="http://www.w3.org/1999/xlink" x="0px" y="0px"
	 viewBox="0 0 1100 800" style="enable-background:new 0 0 1100 800;" xml:space="preserve">
<g id="Background">
	<rect style="fill:#D5E6F4;" width="1100" height="800"/>
</g>
<g id="Shadow">
	<g>
		<path style="fill:#F7F7F7;" d="M517.023,668.118c-29.109,0.084-58.218,0.762-87.276,3.892c-10.956,1.18-21.683,3.776-32.664,4.823
			c-21.934,2.092-43.476,5.993-65.488,7.793c-17.726,1.449-35.526,2.305-53.201,4.143c-16.571,1.724-34.916,1.326-51.359-1.522
			c-12.173-2.109-24.402-3.296-36.371-6.682c-13.389-3.789-27.934-6.498-41.884-6.4c-19.892,0.139-39.265,0.155-58.301,6.845
			c-6.683,2.348-14.863,6.209-19.938,11.137c-11.617,11.282-13.189,39.432-1.59,51.133c19.536,19.693,61.233,27.42,88.617,27.785
			c30.008,0.4,59.159-1.758,89.211-3.026c27.925-1.179,55.779-2.856,83.75-2.797c57.127,0.121,114.262,0,171.286-3.696
			c53.575-3.472,107.285-2.28,160.978-2.28c55.06,0,109.747,0.419,164.41,7.506c23.817,3.088,48.081,4.169,72.018,6.332
			c21.437,1.938,42.038-0.038,63.39-1.829c17.929-1.504,35.741-5.964,52.029-13.503c12.893-5.968,35.879-24.507,39.833-38.752
			c11.085-39.935-156.219-38.975-181.907-38.885c-28.736,0.101-57.701,1.016-86.414-0.045c-12.078-0.446-23.979-2.733-35.767-5.238
			c-11.742-2.495-23.572-1.861-35.479-2.91c-49.655-4.374-99.421-3.734-149.235-3.734
			C549.46,668.209,533.242,668.071,517.023,668.118z"/>
	</g>
</g>
<g id="Object">
	<g>
		<g>
			<rect x="189.446" y="165.888" style="fill:#305399;" width="125.831" height="125.831"/>
		</g>
		<g>
			<polygon style="fill:#3C66AA;" points="189.446,165.888 224.815,126.126 350.646,126.126 315.277,165.888 			"/>
		</g>
		<g>
			<polygon style="fill:#284B84;" points="315.277,165.888 315.277,291.718 350.646,251.957 350.646,126.126 			"/>
		</g>
	</g>
	<g>
		<path style="fill:#7DB5DB;" d="M444.913,211.763h-9.846v-3.371h9.846V211.763z M428.324,211.763h-10.112v-3.371h10.112V211.763z
			 M411.47,211.763h-10.113v-3.371h10.113V211.763z M394.615,211.763h-10.113v-3.371h10.113V211.763z M377.761,211.763h-10.113
			v-3.371h10.113V211.763z M360.906,211.763h-10.113v-3.371h10.113V211.763z M344.052,211.763h-10.113v-3.371h10.113V211.763z"/>
	</g>
	<g>
		<g>
			<g>
				<rect x="438.647" y="135.191" style="fill:#587BC9;" width="173.51" height="173.51"/>
			</g>
			<g>
				<polygon style="fill:#759BD3;" points="438.647,135.191 487.418,80.364 660.928,80.364 612.157,135.191 				"/>
			</g>
			<g>
				<polygon style="fill:#4B71B5;" points="612.157,135.191 612.157,308.701 660.928,253.873 660.928,80.364 				"/>
			</g>
		</g>
		<g id="XMLID_573_">
			<path style="fill:#FFFFFF;" d="M559.46,209.261v-25.824c0-5.417-1.732-10.613-5.009-15.026
				c-3.251-4.378-7.703-7.563-12.874-9.212c-3.499-1.116-7.025-1.116-10.436-1.116h-9.923c-4.612,0-8.666,0.874-12.396,2.671
				c-4.756,2.292-8.889,6.422-11.34,11.333c-1.777,3.56-2.678,7.466-2.678,11.61v25.564h-9.011v57.184
				c0,7.734,6.27,14.004,14.004,14.004h52.641c7.734,0,14.004-6.27,14.004-14.004v-57.184H559.46z M502.69,183.437
				c0-2.059,0.227-3.466,0.899-5.575c0.522-1.636,1.799-3.986,2.908-5.349c1.479-1.817,2.859-2.998,4.924-4.214
				c1.881-1.108,3.749-1.759,6.245-2.177c0.106-0.018,0.443-0.065,1.291-0.12c0.354-0.023,0.736-0.034,1.202-0.034h13.891
				c2.101,0,3.522,0.227,5.631,0.899c1.636,0.522,3.986,1.799,5.348,2.908c1.817,1.479,2.998,2.859,4.214,4.923
				c1.108,1.881,1.759,3.749,2.177,6.245c0.018,0.106,0.065,0.443,0.12,1.291c0.023,0.354,0.034,0.732,0.034,1.188v25.837H502.69
				V183.437z M528.808,245.904v13.769c0,1.023-1.192,1.852-2.662,1.852h-0.054c-1.47,0-2.662-0.829-2.662-1.852v-13.769
				c-4.552-1.19-7.911-5.33-7.911-10.255c0-5.854,4.746-10.6,10.6-10.6s10.6,4.746,10.6,10.6
				C536.719,240.574,533.36,244.714,528.808,245.904z"/>
		</g>
	</g>
	<g>
		<path style="fill:#7DB5DB;" d="M747.516,201.058h-9.847v-3.371h9.847V201.058z M730.927,201.058h-10.112v-3.371h10.112V201.058z
			 M714.073,201.058H703.96v-3.371h10.113V201.058z M697.219,201.058h-10.112v-3.371h10.112V201.058z M680.364,201.058h-10.113
			v-3.371h10.113V201.058z M663.51,201.058h-10.113v-3.371h10.113V201.058z M646.655,201.058h-10.113v-3.371h10.113V201.058z"/>
	</g>
	<g>
		<g>
			<rect x="745.206" y="162.034" style="fill:#305399;" width="109.175" height="109.175"/>
		</g>
		<g>
			<polygon style="fill:#3C66AA;" points="745.206,162.034 775.893,127.536 885.068,127.536 854.38,162.034 			"/>
		</g>
		<g>
			<polygon style="fill:#284B84;" points="854.38,162.034 854.38,271.209 885.068,236.711 885.068,127.536 			"/>
		</g>
	</g>
	<g>
		<g>
			<g id="XMLID_551_">
				<g id="XMLID_553_">
					<polygon style="fill:#151F2D;" points="244.525,713.726 243.91,720.13 230.943,725.685 225.383,718.855 232.174,712.875 
						245.141,707.321 					"/>
				</g>
				<g id="XMLID_552_">
					<polygon style="fill:#305399;" points="255.354,583.915 245.37,711.706 232.876,713.404 222.536,604.486 213.985,569.931 					
						"/>
				</g>
			</g>
			<g id="XMLID_548_">
				<g id="XMLID_550_">
					<polygon style="fill:#305399;" points="285.233,550.379 292.723,702.231 281.326,704.376 257.58,589.474 244.517,556.205 					
						"/>
				</g>
				<g id="XMLID_549_">
					<polygon style="fill:#151F2D;" points="282.34,709.402 295.88,713.543 300.827,705.923 293.449,700.622 281.124,702.941 					
						"/>
				</g>
			</g>
			<g id="XMLID_547_">
				<path style="fill:#BCBEC0;" d="M269.118,386.371c-9.228-7.64-31.477-3.247-43.182-3.247c1.126,0-11.094,65.343-11.481,71.042
					c-1.41,20.777-7.848,41.794-16.733,60.818c-3.746,8.02-8.21,15.757-10.874,24.199c-4.413,13.989-4.402,30.47-3.154,44.949
					c12.563,3.453,24.33,9.92,37.25,11.595c10.629,1.378,21.364-0.576,32.041-1.521c12.626-1.117,25.34-0.82,37.977-1.791
					c12.638-0.971,25.413-3.294,36.599-9.255c-5.003-9.68-8.855-19.908-12.06-30.31c-3.183-10.329-7.278-21.8-8.44-32.571
					c-1.05-9.73-1.221-19.631-2.637-29.496c-1.647-11.476-3.626-22.915-6.375-34.183c-3.143-12.886-7.291-25.526-12.384-37.773
					c-3.877-9.324-8.504-24.594-15.788-31.771C269.635,386.818,269.382,386.59,269.118,386.371z"/>
			</g>
			<g id="XMLID_543_">
				<g id="XMLID_546_">
					<path style="fill:#3B455A;" d="M249.514,351.048c5.846,1.064,13.054,6.059,14.463,12.227c0.678,2.97-0.289,5.705,0.564,8.855
						c1.657,6.217-5.865,15.374,1.581,19.695c3.827,2.221,8.61,1.501,12.964,0.714c0.528-0.095,1.08-0.202,1.498-0.538
						c0.688-0.554,0.803-1.591,0.542-2.435c-0.261-0.844-0.82-1.557-1.309-2.292c-5.116-7.693-3.877-18.728-5.866-27.49
						c-1.986-8.745-6.684-17.454-15.347-21.043c-4.319,2.798-7.459,7.356-8.536,12.389L249.514,351.048z"/>
				</g>
				<g id="XMLID_545_">
					<path style="fill:#EAC1A4;" d="M256.849,388.694c5.625-2.406,9.351-8.132,10.576-14.126c1.225-5.993,0.254-12.233-1.402-18.122
						c-5.511-19.597-30.106-13.984-35.841,2.775C225.184,373.826,240.494,395.689,256.849,388.694z"/>
				</g>
				<g id="XMLID_544_">
					<path style="fill:#3B455A;" d="M228.214,399.475c2.761-1.717,5.468-3.513,7.068-6.719c2.586-5.181,1.495-13.232,1.804-18.853
						c0.323-5.925,0.863-12.381,4.925-16.706c2.653-2.825,5.917-3.6,9.603-3.976c2.524-0.257,2.703,0.691,4.724-0.848
						c1.549-1.18,2.683-4.404,2.906-6.252c0.377-3.117-1.129-6.241-3.356-8.454c-3.427-3.405-7.273-4.913-11.973-4.616
						c-16.5,1.042-28.029,11.862-31.298,28.348c-1.571,7.924,0.816,16.394-0.93,24.04c-1.078,4.721-3.761,8.033-4.536,13.029
						c-2.013,12.962-7.642,29.799-5.987,42.883c0.061,0.484,0.165,1.018,0.556,1.309c0.797,0.594,1.839-0.301,2.421-1.107
						c3.397-4.704,6.793-9.408,10.19-14.113c1.334-1.847,2.684-3.726,3.457-5.869c1.924-5.337,0.136-11.874,3.456-16.474
						C223.053,402.587,225.657,401.066,228.214,399.475z"/>
				</g>
			</g>
			<g id="XMLID_539_">
				<g id="XMLID_541_">
					<g id="XMLID_542_">
						<path style="fill:#EAC1A4;" d="M202.259,525.057c-0.473,3.298,2.163,11.728,5.253,13.561
							c7.133,4.231,4.549-6.404,4.481-10.282c1.363,0.387,2.669,0.803,4.054,0.918c1.27,0.105-2.489-11.268-3.741-12.327
							c-3.005-2.541-5.139-1.237-8.788-0.844C203.169,519.075,202.689,522.068,202.259,525.057z"/>
					</g>
				</g>
				<g id="XMLID_540_">
					<polygon style="fill:#BCBEC0;" points="211.239,405.082 173.888,470.297 200.453,527.264 209.46,515.356 199.974,464.369 
						235.26,442.808 231.396,400.932 					"/>
				</g>
			</g>
			<polygon style="fill:#BCBEC0;" points="274.152,392.555 307.284,445.496 325.454,420.254 342.621,423.142 334.481,464.098 
				311.944,480.825 274.152,458.163 			"/>
		</g>
		<g>
			<polygon style="fill:#587BC9;" points="517.705,399.452 503.09,404.465 479.443,439.906 449.162,419.646 439.539,431.068 
				454.811,453.729 482.309,473.366 517.705,436.322 			"/>
			<polygon style="fill:#EAC1A4;" points="585.255,320.858 586.373,304.957 573.512,295 568.119,302.053 573.927,312.424 
				571.853,317.817 577.554,326.381 			"/>
			<g>
				<g>
					<g>
						<polygon style="fill:#3B455A;" points="483.35,501.436 482.309,591.401 491.897,707.213 504.933,707.213 520.532,600.366 
							538.37,493.335 						"/>
						<polygon style="fill:#151F2D;" points="504.858,712.71 490.761,719.759 483.713,712.71 490.761,705.662 504.858,705.662 
													"/>
					</g>
					<g>
						<polygon style="fill:#3B455A;" points="572.726,501.436 572.982,553.484 564.19,707.213 551.154,707.213 529.347,605.199 
							517.705,493.335 						"/>
						<polygon style="fill:#151F2D;" points="551.229,712.71 565.326,719.759 572.374,712.71 565.326,705.662 551.229,705.662 
													"/>
					</g>
				</g>
				<path style="fill:#587BC9;" d="M586.282,532.775c0.279,8.258,0.1,19.304-3.377,19.717c-0.651,0.077-1.279-0.211-1.852-0.489
					c-6.046-2.937-10.355-7.089-16.316-9.927c-6.246-2.974-13.345-4.53-20.282-5.604c-10.348-1.653-20.866-2.646-31.281-2.738
					c-8.951-0.079-18.259,4.004-26.72,6.249c-3.257,0.864-5.907,3.238-8.613,5.1c-3.996,2.75-5.749,3.839-5.204-1.779
					c0.889-9.167,1.813-18.332,2.941-27.473c2.249-18.233,5.311-36.422,10.492-54.072c1.979-6.743,4.262-13.392,6.545-20.038
					c2.779-8.093,5.559-16.187,8.338-24.281c3.454-10.059,9.284-17.145,19.492-20.664c8.822-3.041,19.78-3.873,28.361,0.384
					c9.539,4.732,14.075,20.852,18.709,29.467c4.061,7.549,9.179,28.139,10.699,36.277c1.83,9.795,3.519,19.545,4.85,29.268
					c1.474,10.77,2.513,21.507,2.813,32.182C585.911,525.533,586.149,528.832,586.282,532.775z"/>
				<g>
					<path style="fill:#EAC1A4;" d="M528.48,398.923c0.207,0.18,0.445,0.321,0.721,0.412c0.547,0.18,1.141,0.115,1.714,0.047
						c2.33-0.276,4.661-0.551,6.991-0.827c-0.769-7.136,3.403-8.75,7.468-13.34c4.12-4.653,2.852-10.926,2.621-16.621
						c-0.066-1.586-0.143-3.22-0.814-4.658c-1.177-2.525-3.916-3.918-6.576-4.745c-6.787-2.109-14.55-1.59-20.526,2.257
						c-1.591,1.024-3.076,2.311-3.937,3.994c-1.328,2.596-0.991,5.695-0.62,8.588c0.569,4.447,1.885,8.814,4.4,12.561
						c2.342,3.492,6.809,5.164,7.322,9.354C527.374,397.029,527.702,398.247,528.48,398.923z"/>
					<g>
						<path style="fill:#3B455A;" d="M515.716,368.862c0.396,1.793,1.232,3.608,0.797,5.391c-2.849-0.967-4.71-3.88-5.718-6.842
							c-0.457-1.342-0.79-2.764-0.675-4.184c0.115-1.42,0.732-2.847,1.853-3.65c1.565-1.12,4.372-0.68,4.82,1.35
							C517.244,362.974,515.12,366.164,515.716,368.862z"/>
						<path style="fill:#3B455A;" d="M500.594,353.11c0.068-2.149,0.886-4.069,2.806-5.366c1.655-1.118,3.564-2.045,4.569-3.822
							c0.78-1.379,0.895-3.087,1.669-4.47c1.4-2.506,4.44-3.243,7.085-4.092c6.615-2.124,10.177-4.577,17.183-1.857
							c4.981,1.934,11.418,2.193,16.041,5.013c1.931,1.178,3.574,3.07,4.922,5.178c4.671,7.303,5.792,17.571,2.75,25.188
							c-0.681,1.705-1.546,3.273-2.471,4.774c-1.85,3.002-3.831,6.695-7.105,8.165c-0.206-1.414-1.259-2.195-1.589-3.585
							c-0.237-1-0.158-2.049-0.106-3.079c0.201-4.005,1.43-10.337-2.57-12.323c-5.057-2.511-14.544-0.246-19.415,1.88
							c-4.31,1.881-11.584,4.328-16.179,2.313C503.918,365.156,500.45,357.7,500.594,353.11z"/>
					</g>
				</g>
			</g>
			<polygon style="fill:#587BC9;" points="544.814,396.243 589.535,383.063 572.982,327.153 586.622,317.369 619.549,382.094 
				610.444,404.507 567.715,426.562 			"/>
		</g>
		<g>
			<polygon style="fill:#F4F4F4;" points="829.956,389.49 816.905,390.039 777.986,426.966 720.183,419.229 716.343,433.381 
				773.149,453.729 790.302,453.729 820.716,435.059 			"/>
			<polygon style="fill:#EAC1A4;" points="720.298,428.001 712.632,433.807 706.465,434.249 706.043,432.195 709.323,430.122 
				697.394,429.771 695.311,424.435 708.442,418.611 721.569,419.917 			"/>
			<g>
				<path style="fill:#151F2D;" d="M802.953,691.49l-10.841,7.679l-3.614,5.872c0,0,4.065,1.807,6.324,2.259
					c2.259,0.452,19.875-2.259,19.875-2.259v-10.389L802.953,691.49z"/>
				<path style="fill:#151F2D;" d="M887.191,694.76l-4.001,7.277c0,0-2.503,9.194-0.334,8.564c2.169-0.63,14.259-2.731,14.749-4.284
					c0.49-1.553,5.736-7.781,6.352-8.901c0.616-1.12-1.995-8.61-1.995-8.61L887.191,694.76z"/>
				<path style="fill:#40495F;" d="M813.044,523.492l35.004,104.499l39.143,66.77l15.182-4.411l-25.951-76.153
					c0,0-3.134-76.499-8.26-99L813.044,523.492z"/>
				<polygon style="fill:#40495F;" points="785.336,539.262 798.887,694.652 815.149,694.652 820.118,615.15 829.453,544.764 
					793.918,503.125 				"/>
				<path style="fill:#F4F4F4;" d="M784.814,439.831c1.683-8.009,2.346-16.629,6.313-24.096
					c3.967-7.467,11.459-13.124,17.244-19.473c2.451-2.69,5.066-5.49,8.709-6.772c2.497-0.879,5.251-0.958,7.94-1.026
					c8.157-0.206,16.314-0.411,24.471-0.617c2.974-0.075,6.067-0.13,8.778,0.944c4.063,1.61,6.359,5.352,8.366,8.843
					c5.127,8.915,6.072,18.805,6.531,28.882c-0.015,0.095,6.364,126.569,1.304,124.195c-6.301-2.957-13.509-4.529-20.578-5.629
					c-9.968-1.597-20.144-2.613-30.303-2.863l-17.882,1.206h-10.792c-6.477,0.629-5.945,2.576-12.601,2.171
					C778.055,545.339,782.885,449.011,784.814,439.831z"/>
				<g>
					<path style="fill:#EAC1A4;" d="M831.671,392.555c4.048-0.176,8.097-0.352,12.145-0.528c0.218-3.224,0.178-6.466-0.119-9.684
						c3.421-0.994,7.397-2.548,8.176-6.024c0.245-1.095,0.117-2.235-0.012-3.349c-0.536-4.608-1.071-9.216-1.607-13.824
						c-0.185-1.594-0.385-3.235-1.169-4.635c-1.375-2.457-4.241-3.657-6.984-4.292c-7-1.619-14.786-0.515-20.523,3.81
						c-1.527,1.151-2.928,2.559-3.67,4.321c-1.145,2.717-0.573,5.815,0.016,8.704c0.544,2.666,1.088,5.332,1.633,7.999
						c0.626,3.067,1.581,6.566,4.431,7.861c1.513,0.688,3.348,0.613,4.699,1.581C831.069,386.202,830.532,389.855,831.671,392.555z"
						/>
					<path style="fill:#3B455A;" d="M809.241,333.995c0.899-0.16,1.816-0.35,2.745-0.754c2.933-1.276,4.988-3.836,8.102-5.035
						c6.299-2.423,14.199-2.071,20.387,0.531c5.921,2.491,14.003,3.449,19.302,6.795c2.213,1.397,3.925,3.484,5.223,5.757
						c4.499,7.873,3.945,18.353-1.359,25.707c-1.19,1.65-2.587,3.141-4.047,4.558c-3.021,2.933-6.642,6.561-10.626,7.489
						c0.101-3.512,3.909-14.394,1.375-17.418c-3.36-4.01-9.955-3.907-14.681-3.464c-5.631,0.527-10.267-1.281-15.883-1
						c-2.861,0.143-6.095,0.718-8.289-1.124c-2.536-2.129-7.896-8.893-9.168-11.861c-1.113-2.599-0.371-5.799,1.564-7.86
						C805.557,334.537,807.36,334.33,809.241,333.995z"/>
				</g>
			</g>
			<path style="fill:#305399;" d="M832.766,392.455c-0.424,2.964-1.332,6.326-1.332,6.326s-22.556,64.977-24.7,70.165
				c-0.479,1.159-0.716,2.4-0.716,3.654l5.178,15.208l10.277-12.71l13.944-72.807l3.387-2.907l1.189-7.382L832.766,392.455z"/>
		</g>
		<g>
			<path style="fill:#385E96;" d="M451.517,508.991l-116.997-9.967c-4.426-0.377-7.708-4.271-7.331-8.697l1.185-13.915
				c0.377-4.426,4.271-7.708,8.697-7.331l116.997,9.967c4.426,0.377,7.708,4.271,7.331,8.697l-1.185,13.915
				C459.837,506.086,455.943,509.368,451.517,508.991z"/>
			<g>
				<path style="fill:#305399;" d="M337.971,423.845l-79.52-9.334c-23.168-2.719-44.349,14.012-47.069,37.18l-4.583,39.045
					c-2.719,23.168,14.011,44.35,37.18,47.069l79.52,9.334c23.168,2.719,44.349-14.012,47.069-37.18l4.583-39.045
					C377.871,447.746,361.14,426.564,337.971,423.845z M350.186,467.983l-4.583,39.045c-1.092,9.301-9.872,16.237-19.173,15.145
					l-79.52-9.334c-9.301-1.092-16.237-9.872-15.145-19.174l4.583-39.045c1.092-9.301,9.872-16.237,19.174-15.145l79.52,9.334
					C344.342,449.902,351.278,458.682,350.186,467.983z"/>
				<path style="fill:#305399;" d="M536.522,431.845h-80.066c-23.328,0-42.413,19.086-42.413,42.414v39.313
					c0,23.327,19.086,42.414,42.413,42.414h80.066c23.328,0,42.414-19.086,42.414-42.414v-39.313
					C578.936,450.931,559.85,431.845,536.522,431.845z M553.799,513.572c0,9.365-7.912,17.277-17.277,17.277h-80.066
					c-9.365,0-17.277-7.912-17.277-17.277v-39.313c0-9.365,7.912-17.277,17.277-17.277h80.066c9.365,0,17.277,7.912,17.277,17.277
					V513.572z"/>
				<path style="fill:#305399;" d="M791.908,500.479l-2.334-39.243c-1.385-23.286-21.57-41.206-44.857-39.821l-79.925,4.753
					c-23.286,1.385-41.206,21.57-39.821,44.857l2.334,39.243c1.385,23.286,21.57,41.206,44.857,39.821l79.925-4.753
					C775.374,543.951,793.293,523.766,791.908,500.479z M750.595,520.243l-79.925,4.753c-9.348,0.556-17.716-6.872-18.272-16.221
					l-2.334-39.244c-0.556-9.349,6.872-17.716,16.221-18.272l79.925-4.753c9.349-0.556,17.716,6.872,18.272,16.221l2.334,39.243
					C767.372,511.32,759.943,519.688,750.595,520.243z"/>
			</g>
			<path style="fill:#3D65A5;" d="M656.385,504.062H538.964c-4.442,0-8.043-3.601-8.043-8.043v-13.965
				c0-4.442,3.601-8.043,8.043-8.043h117.421c4.442,0,8.043,3.601,8.043,8.043v13.965
				C664.428,500.461,660.827,504.062,656.385,504.062z"/>
		</g>
		<g>
			<polygon style="fill:#F4F4F4;" points="843.925,423.801 837.994,459.863 773.282,476.651 773.282,493.915 850.7,485.733 
				864.078,464.125 862.79,408.193 			"/>
			<polygon style="fill:#EAC1A4;" points="773.282,490.57 765.866,493.915 750.71,490.47 753.291,482.269 765.061,481.569 
				767.427,477.588 773.17,479.122 			"/>
		</g>
		<polygon style="fill:#EAC1A4;" points="444.74,420.142 429.816,425.741 426.111,441.577 434.768,443.548 441.784,433.952 
			447.551,433.595 452.967,424.848 		"/>
		<polygon style="fill:#EAC1A4;" points="325.454,420.254 339.311,419.025 348.205,430.088 342.137,434.907 332.994,430.004 
			328.321,431.9 320.758,427.062 		"/>
	</g>
</g>
</svg>
